<svg xmlns="http://www.w3.org/2000/svg" viewBox="0 0 1226 1194"><g fill="none" stroke-width="2"><path stroke="#a3a3a3" d="M706.38 192.62q-12.91 38.14-25.3 75.82-97.31 295.96-194.69 591.9-11.06 33.61-22.36 67.06a.46.46 0 0 0 .44.6h52.47a.68.67 8.9 0 0 .64-.46q4.95-14.69 25.6-77.36Q637.21 564.72 731.1 279.2q14.25-43.31 28.86-86.57a.48.48 0 0 0-.45-.63h-52.26a.92.91 9.3 0 0-.87.62" vector-effect="non-scaling-stroke"/><path stroke="#80dfff" d="M71.77 583.49c106.76 55.64 213.54 111.23 320.46 166.55a.36.35 13.9 0 0 .52-.31v-55.5a1.05 1.05 0 0 0-.58-.94q-123.74-63.87-247.53-127.64-1.17-.61-1.31-1.22a1.55 1.54-20.1 0 1 .8-1.72l248.18-128.86a.83.82 76.3 0 0 .44-.73v-54.74a.45.44 76.3 0 0-.65-.4L71.77 544.52a.99.97-14.4 0 0-.52.86v37.25a.97.96-76.4 0 0 .52.86" vector-effect="non-scaling-stroke"/><path stroke="#ffb4b0" d="M1081.5 733.35a1.15 1.15 0 0 1-.38 1.72q-105.39 54.43-210.49 108.5-19.12 9.83-38.01 19.87a1.17 1.17 0 0 0-.62 1.03v54.52a1 .99 79.5 0 0 1.35.93c1.45-.56 2.88-1.61 3.94-2.15q150.02-77.96 300.02-155.97 12.9-6.71 16.19-8.31a.88.87-12.9 0 0 .5-.79v-36.96a1.15 1.13-71.7 0 0-.45-.91c-2.12-1.63-5.16-2.78-6.91-3.69q-156.57-81.46-313.19-162.83c-.38-.2-.42-.46-1.01-.3a.6.6 0 0 0-.44.58v53.9a1.68 1.68 0 0 0 .9 1.49q123.78 64.16 247.36 128.57 1.03.54 1.24.8" vector-effect="non-scaling-stroke"/></g><path fill="#fff" d="M0 0h1226v1194H0V0Zm706.38 192.62q-12.91 38.14-25.3 75.82-97.31 295.96-194.69 591.9-11.06 33.61-22.36 67.06a.46.46 0 0 0 .44.6h52.47a.68.67 8.9 0 0 .64-.46q4.95-14.69 25.6-77.36Q637.21 564.72 731.1 279.2q14.25-43.31 28.86-86.57a.48.48 0 0 0-.45-.63h-52.26a.92.91 9.3 0 0-.87.62ZM71.77 583.49c106.76 55.64 213.54 111.23 320.46 166.55a.36.35 13.9 0 0 .52-.31v-55.5a1.05 1.05 0 0 0-.58-.94q-123.74-63.87-247.53-127.64-1.17-.61-1.31-1.22a1.55 1.54-20.1 0 1 .8-1.72l248.18-128.86a.83.82 76.3 0 0 .44-.73v-54.74a.45.44 76.3 0 0-.65-.4L71.77 544.52a.99.97-14.4 0 0-.52.86v37.25a.97.96-76.4 0 0 .52.86ZM1081.5 733.35a1.15 1.15 0 0 1-.38 1.72q-105.39 54.43-210.49 108.5-19.12 9.83-38.01 19.87a1.17 1.17 0 0 0-.62 1.03v54.52a1 .99 79.5 0 0 1.35.93c1.45-.56 2.88-1.61 3.94-2.15q150.02-77.96 300.02-155.97 12.9-6.71 16.19-8.31a.88.87-12.9 0 0 .5-.79v-36.96a1.15 1.13-71.7 0 0-.45-.91c-2.12-1.63-5.16-2.78-6.91-3.69q-156.57-81.46-313.19-162.83c-.38-.2-.42-.46-1.01-.3a.6.6 0 0 0-.44.58v53.9a1.68 1.68 0 0 0 .9 1.49q123.78 64.16 247.36 128.57 1.03.54 1.24.8Z"/><path fill="#474747" d="M706.38 192.62a.92.91 9.3 0 1 .87-.62h52.26a.48.48 0 0 1 .45.63q-14.61 43.26-28.86 86.57-93.89 285.52-187.92 570.98-20.65 62.67-25.6 77.36a.68.67 8.9 0 1-.64.46h-52.47a.46.46 0 0 1-.44-.6q11.3-33.45 22.36-67.06 97.38-295.94 194.69-591.9 12.39-37.68 25.3-75.82Z"/><path fill="#00bfff" d="M392.23 750.04c-106.92-55.32-213.7-110.91-320.46-166.55a.97.96-76.4 0 1-.52-.86v-37.25a.99.97-14.4 0 1 .52-.86L392.1 377.98a.45.44 76.3 0 1 .65.4v54.74a.83.82 76.3 0 1-.44.73L144.13 562.71a1.55 1.54-20.1 0 0-.8 1.72q.14.61 1.31 1.22 123.79 63.77 247.53 127.64a1.05 1.05 0 0 1 .58.94v55.5a.36.35 13.9 0 1-.52.31Z"/><path fill="#ff6961" d="M1081.5 733.35q-.21-.26-1.24-.8-123.58-64.41-247.36-128.57a1.68 1.68 0 0 1-.9-1.49v-53.9a.6.6 0 0 1 .44-.58c.59-.16.63.1 1.01.3q156.62 81.37 313.19 162.83c1.75.91 4.79 2.06 6.91 3.69a1.15 1.13-71.7 0 1 .45.91v36.96a.88.87-12.9 0 1-.5.79q-3.29 1.6-16.19 8.31-150 78.01-300.02 155.97c-1.06.54-2.49 1.59-3.94 2.15a1 .99 79.5 0 1-1.35-.93v-54.52a1.17 1.17 0 0 1 .62-1.03q18.89-10.04 38.01-19.87 105.1-54.07 210.49-108.5a1.15 1.15 0 0 0 .38-1.72Z"/></svg>